<?xml version="1.0" standalone="no"?>
<!DOCTYPE svg PUBLIC "-//W3C//DTD SVG 20010904//EN"
 "http://www.w3.org/TR/2001/REC-SVG-20010904/DTD/svg10.dtd">
<svg version="1.0" xmlns="http://www.w3.org/2000/svg"
 width="219.000000pt" height="219.000000pt" viewBox="0 0 219.000000 219.000000"
 preserveAspectRatio="xMidYMid meet">
<metadata>
Created by potrace 1.11, written by Peter Selinger 2001-2013
</metadata>
<g transform="translate(0.000000,219.000000) scale(0.100000,-0.100000)"
fill="#000000" stroke="none">
<path d="M965 2174 c-33 -8 -67 -17 -75 -21 -8 -3 -21 -7 -28 -9 -28 -6 -128
-69 -170 -108 -44 -41 -119 -144 -114 -158 1 -5 -2 -8 -7 -8 -5 0 -11 -11 -13
-25 -3 -13 -2 -22 2 -20 4 2 7 -2 7 -9 0 -8 -6 -12 -13 -9 -9 3 -12 -2 -9 -16
2 -12 -1 -21 -7 -21 -6 0 -8 -9 -5 -20 3 -11 1 -20 -5 -20 -5 0 -8 -12 -6 -27
2 -16 8 -27 14 -26 6 1 11 -5 11 -12 0 -10 -4 -12 -12 -5 -9 8 -14 6 -19 -5
-3 -8 0 -15 7 -15 8 0 8 -3 1 -8 -5 -4 -9 -32 -8 -62 4 -71 7 -84 24 -106 14
-17 14 -18 -2 -5 -17 12 -17 11 -11 -20 3 -19 9 -36 12 -39 4 -3 6 -12 6 -20
-2 -24 16 -70 27 -70 5 0 6 -4 3 -10 -12 -19 6 -32 23 -18 15 12 16 11 4 -4
-12 -15 -9 -24 20 -67 18 -28 38 -51 45 -51 7 0 13 -6 14 -12 0 -16 56 -61 75
-61 7 0 11 -4 9 -7 -5 -8 65 -58 77 -56 4 1 13 -8 21 -18 9 -12 19 -16 28 -11
8 5 11 5 7 0 -5 -5 18 -24 50 -42 158 -95 225 -151 258 -219 60 -122 23 -274
-80 -326 -37 -19 -196 -42 -196 -28 0 3 -28 11 -62 17 -86 16 -97 19 -141 38
-21 8 -42 13 -46 10 -5 -3 -12 2 -15 11 -3 8 -10 12 -16 9 -6 -4 -7 -11 -4
-17 4 -7 2 -8 -5 -4 -6 4 -9 11 -6 16 7 11 -32 33 -44 26 -5 -3 -12 1 -15 10
-3 8 -10 12 -16 9 -5 -3 -10 0 -10 7 0 9 -3 9 -10 -2 -8 -13 -10 -13 -10 1 0
9 -6 19 -14 22 -12 5 -15 -8 -15 -69 0 -42 4 -72 9 -69 5 3 7 14 5 25 -2 11 0
20 6 20 12 0 6 -37 -9 -52 -21 -21 -13 -36 18 -33 17 1 28 0 25 -4 -4 -3 -16
-6 -28 -6 -17 0 -22 -7 -25 -39 -2 -26 0 -36 7 -31 6 3 9 10 6 14 -2 5 5 17
18 27 22 19 22 19 4 -2 -9 -11 -15 -23 -12 -26 3 -3 -1 -11 -10 -18 -8 -7 -15
-19 -15 -28 0 -12 4 -12 23 4 l22 19 -21 -25 c-24 -29 -34 -97 -12 -84 10 6
10 4 -1 -9 -12 -15 -12 -19 5 -32 10 -8 27 -15 37 -15 9 0 17 -4 17 -10 0 -5
8 -10 18 -10 10 0 22 -4 27 -9 17 -15 156 -51 148 -38 -5 9 -3 9 8 0 20 -16
64 -20 64 -6 0 6 3 15 7 19 4 3 6 -3 3 -15 -4 -23 -13 -22 165 -25 52 -1 115
2 140 6 25 5 57 11 71 13 86 15 192 73 264 142 128 124 187 278 187 490 -1
260 -112 428 -391 590 -230 133 -298 190 -320 265 -7 24 -17 51 -23 62 -6 12
-6 16 1 12 6 -4 9 4 7 21 -6 46 21 117 58 157 20 20 39 37 43 37 4 -1 22 3 38
8 87 24 244 -12 396 -89 34 -17 61 -25 64 -20 9 15 126 353 123 355 -31 27
-248 107 -323 120 -85 14 -319 14 -380 -1z m-260 -203 c-9 -8 -36 -10 -30 -2
2 4 11 8 20 8 8 0 13 -3 10 -6z m-40 -41 c3 -5 1 -10 -4 -10 -6 0 -11 5 -11
10 0 6 2 10 4 10 3 0 8 -4 11 -10z m-50 -40 c-3 -5 -12 -10 -18 -10 -7 0 -6 4
3 10 19 12 23 12 15 0z m68 -95 c-3 -9 -8 -14 -10 -11 -3 3 -2 9 2 15 9 16 15
13 8 -4z m-96 -52 c0 -9 -4 -10 -14 -2 -7 6 -13 12 -13 14 0 1 6 2 13 2 8 0
14 -6 14 -14z m118 -12 c-9 -8 -36 -10 -30 -2 2 4 11 8 20 8 8 0 13 -3 10 -6z
m-161 -27 c3 -8 2 -12 -4 -9 -6 3 -10 10 -10 16 0 14 7 11 14 -7z m60 -32 c3
-5 -1 -9 -9 -9 -8 0 -12 4 -9 9 3 4 7 8 9 8 2 0 6 -4 9 -8z m1 -34 c5 4 5 1 1
-6 -6 -10 -11 -10 -22 -1 -8 6 -14 14 -14 16 0 3 6 0 13 -6 8 -6 18 -7 22 -3z
m-64 -21 c-10 -9 -11 -8 -5 6 3 10 9 15 12 12 3 -3 0 -11 -7 -18z m124 -7 c3
-5 1 -10 -4 -10 -6 0 -11 5 -11 10 0 6 2 10 4 10 3 0 8 -4 11 -10z m42 -5 c0
-8 -4 -12 -9 -9 -5 3 -6 10 -3 15 9 13 12 11 12 -6z m-42 -35 c3 -5 1 -10 -4
-10 -6 0 -11 5 -11 10 0 6 2 10 4 10 3 0 8 -4 11 -10z m0 -40 c3 -5 1 -10 -4
-10 -6 0 -11 5 -11 10 0 6 2 10 4 10 3 0 8 -4 11 -10z m-117 -25 c-3 -3 -9 2
-12 12 -6 14 -5 15 5 6 7 -7 10 -15 7 -18z m97 -4 c3 -5 2 -12 -3 -15 -5 -3
-9 1 -9 9 0 17 3 19 12 6z m-55 -15 c0 -2 -8 -10 -17 -17 -16 -13 -17 -12 -4
4 13 16 21 21 21 13z m24 -34 c3 -5 -1 -9 -9 -9 -8 0 -15 4 -15 9 0 4 4 8 9 8
6 0 12 -4 15 -8z m51 -2 c3 -5 1 -10 -4 -10 -6 0 -11 5 -11 10 0 6 2 10 4 10
3 0 8 -4 11 -10z m5 -34 c0 -3 -4 -8 -10 -11 -5 -3 -10 -1 -10 4 0 6 5 11 10
11 6 0 10 -2 10 -4z m-49 -39 c-10 -9 -11 -8 -5 6 3 10 9 15 12 12 3 -3 0 -11
-7 -18z m129 13 c0 -5 -2 -10 -4 -10 -3 0 -8 5 -11 10 -3 6 -1 10 4 10 6 0 11
-4 11 -10z m-80 -14 c0 -3 -4 -8 -10 -11 -5 -3 -10 -1 -10 4 0 6 5 11 10 11 6
0 10 -2 10 -4z m55 -15 c3 -5 2 -12 -3 -15 -5 -3 -9 1 -9 9 0 17 3 19 12 6z
m-20 -91 c3 -5 1 -10 -4 -10 -6 0 -11 5 -11 10 0 6 2 10 4 10 3 0 8 -4 11 -10z
m-40 -60 c3 -5 1 -10 -4 -10 -6 0 -11 5 -11 10 0 6 2 10 4 10 3 0 8 -4 11 -10z
m-95 -764 c-7 -7 -13 -7 -20 0 -6 6 -3 10 10 10 13 0 16 -4 10 -10z m134 -75
c3 -5 -2 -15 -12 -22 -15 -12 -16 -12 -5 2 7 9 10 19 6 22 -3 4 -4 7 0 7 3 0
8 -4 11 -9z m-109 -21 c3 -6 -1 -7 -9 -4 -18 7 -21 14 -7 14 6 0 13 -4 16 -10z
m53 -45 c-3 -3 -9 2 -12 12 -6 14 -5 15 5 6 7 -7 10 -15 7 -18z m-68 12 c0 -2
-10 -12 -22 -23 l-23 -19 19 23 c18 21 26 27 26 19z m120 -3 c0 -8 -19 -13
-24 -6 -3 5 1 9 9 9 8 0 15 -2 15 -3z m27 -19 c0 -8 -4 -12 -9 -9 -5 3 -6 10
-3 15 9 13 12 11 12 -6z m-137 -19 c0 -3 -4 -8 -10 -11 -5 -3 -10 -1 -10 4 0
6 5 11 10 11 6 0 10 -2 10 -4z m34 -4 c3 -5 -1 -9 -9 -9 -8 0 -12 4 -9 9 3 4
7 8 9 8 2 0 6 -4 9 -8z m-59 -64 c-7 -32 -13 -32 -11 1 0 16 4 27 8 25 4 -2 5
-14 3 -26z m100 2 c3 -5 1 -10 -4 -10 -6 0 -11 5 -11 10 0 6 2 10 4 10 3 0 8
-4 11 -10z m0 -40 c3 -5 1 -10 -4 -10 -6 0 -11 5 -11 10 0 6 2 10 4 10 3 0 8
-4 11 -10z m-121 -30 c-6 -6 -10 -3 -10 10 0 13 4 16 10 10 7 -7 7 -13 0 -20z
m126 -10 c0 -5 -2 -10 -4 -10 -3 0 -8 5 -11 10 -3 6 -1 10 4 10 6 0 11 -4 11
-10z"/>
</g>
</svg>
